<?xml version="1.0" encoding="utf-8"?>
<!-- Generator: Adobe Illustrator 19.1.0, SVG Export Plug-In . SVG Version: 6.00 Build 0)  -->
<!DOCTYPE svg PUBLIC "-//W3C//DTD SVG 1.1//EN" "http://www.w3.org/Graphics/SVG/1.1/DTD/svg11.dtd">
<svg version="1.1" id="Layer_1" xmlns="http://www.w3.org/2000/svg" xmlns:xlink="http://www.w3.org/1999/xlink" x="0px" y="0px"
	 viewBox="0 0 180.2 181.2" style="enable-background:new 0 0 180.2 181.2;" xml:space="preserve">
<style type="text/css">
	.st0{fill:#FFFFFF;}
</style>
<g id="q0Nwjg.tif">
	<g>
		<path class="st0" d="M30.6,142.7c0-31.3,0-62.6,0-93.9c1.3-3.5,3.3-6.6,7.3-7c4.3-0.5,8.7-0.1,13.2-0.1c0,4.1-0.1,8.1,0,12.1
			c0.1,6.6,5.2,12,11.7,12.7c6.5,0.7,12.6-3.6,13.9-10.1c0.6-2.8,0.4-5.8,0.4-8.8c0.1-2.1,0-4.1,0-6.1c8.9,0,17.3,0,26,0
			c0,4.1,0,8,0,11.9c0,3.2,1.1,6.1,3.2,8.5c3.5,4.1,9.1,5.6,14.1,3.8c5.1-1.8,8.6-6.5,8.7-12c0.1-4.1,0-8.2,0-12.4
			c3.1,0,6,0.1,8.8,0c5.7-0.3,9.7,1.9,11.6,7.5c0,31.3,0,62.6,0,93.9c-1.2,3.8-3.7,6.2-7.4,7.4c-34.7,0-69.4,0-104.2,0
			C34.3,148.9,31.8,146.5,30.6,142.7z M41.8,138.8c32.3,0,64.4,0,96.4,0c0-20.5,0-40.8,0-61.1c-32.2,0-64.3,0-96.4,0
			C41.8,98.1,41.8,118.4,41.8,138.8z"/>
		<path class="st0" d="M65.5,31.1c3.2,1.4,4.4,3.8,4.2,7.2c-0.2,4.8,0,9.6,0,14.4c0,3.8-2.3,6.3-5.6,6.3c-3.3,0-5.6-2.5-5.6-6.3
			c0-4.8,0.1-9.6-0.1-14.4c-0.1-3.4,1.1-5.8,4.2-7.2C63.6,31.1,64.5,31.1,65.5,31.1z"/>
		<path class="st0" d="M117.5,31.1c3.2,1.4,4.4,3.8,4.2,7.2c-0.2,4.8,0,9.6,0,14.4c0,3.8-2.3,6.3-5.6,6.3c-3.3,0-5.6-2.5-5.6-6.3
			c0-4.8,0.1-9.6-0.1-14.4c-0.1-3.4,1.1-5.8,4.2-7.2C115.7,31.1,116.6,31.1,117.5,31.1z"/>
		<path class="st0" d="M30.6,142.7c1.2,3.8,3.7,6.2,7.4,7.4c-2.5,0-5,0-7.4,0C30.6,147.7,30.6,145.2,30.6,142.7z"/>
		<path class="st0" d="M142.2,150.1c3.7-1.3,6.2-3.7,7.4-7.4c0,2.5,0,5,0,7.4C147.1,150.1,144.7,150.1,142.2,150.1z"/>
		<path class="st0" d="M71.4,105.4c-6.1,0-12.1,0-18.3,0c0-6,0-12.1,0-18.3c6,0,12.1,0,18.3,0C71.4,93.1,71.4,99.2,71.4,105.4z"/>
		<path class="st0" d="M99.2,105.4c-6.2,0-12.2,0-18.3,0c0-6.1,0-12.1,0-18.3c6,0,12.1,0,18.3,0C99.2,93.1,99.2,99.2,99.2,105.4z"/>
		<path class="st0" d="M108.8,105.3c0-6.2,0-12.2,0-18.3c6.1,0,12.1,0,18.3,0c0,6,0,12.1,0,18.3
			C121.1,105.3,115.1,105.3,108.8,105.3z"/>
		<path class="st0" d="M71.3,131.4c-6.2,0-12.2,0-18.3,0c0-6.1,0-12.1,0-18.3c6,0,12.1,0,18.3,0C71.3,119.1,71.3,125.2,71.3,131.4z"
			/>
		<path class="st0" d="M99.2,131.5c-6.1,0-12.2,0-18.3,0c0-6.2,0-12.2,0-18.4c6.1,0,12.1,0,18.3,0C99.2,119.1,99.2,125.2,99.2,131.5
			z"/>
		<path class="st0" d="M127.2,131.4c-6.1,0-12.1,0-18.3,0c0-6.1,0-12.1,0-18.4c6.1,0,12.1,0,18.3,0
			C127.2,119.2,127.2,125.2,127.2,131.4z"/>
	</g>
</g>
</svg>
