<?xml version="1.0" encoding="utf-8"?>
<!-- Generator: Adobe Illustrator 19.1.0, SVG Export Plug-In . SVG Version: 6.00 Build 0)  -->
<!DOCTYPE svg PUBLIC "-//W3C//DTD SVG 1.1//EN" "http://www.w3.org/Graphics/SVG/1.1/DTD/svg11.dtd">
<svg version="1.1" id="Layer_1" xmlns="http://www.w3.org/2000/svg" xmlns:xlink="http://www.w3.org/1999/xlink" x="0px" y="0px"
	 viewBox="0 0 180.2 181.2" style="enable-background:new 0 0 180.2 181.2;" xml:space="preserve">
<style type="text/css">
	.st0{fill:#FFFFFF;}
</style>
<g id="OzQgyu.tif">
	<g>
		<path class="st0" d="M71.6,83.9c6.6,0.4,12.4-1.5,17.8-4.6c4.8-2.7,9.1-6.1,13-10.1c1.8-1.9,2.2-4.1,0.9-6.4
			c-0.6-1-0.4-1.7,0.2-2.5c2.4-3.2,4.7-6.5,7-9.8c1-1.4,0.9-2.1-0.5-3.1c-2.4-1.8-4.8-3.5-7.3-5.3c-1.2-0.9-1.9-0.8-2.8,0.5
			c-4.2,5.9-8.4,11.8-12.5,17.7c-1.1,1.6-1,2.1,0.5,3.2c0.5,0.3,0.9,0.7,1.4,1c0.7,0.6,0.8,1.6,0.1,2.1c-4.6,3.3-9.5,6.2-15.4,6.4
			c-2.1,0.1-2.2,0-2.8-2.1c-1.6-5.1-4.9-8.5-10.1-9.8c-6.9-1.8-14,2.3-16.2,9.3c-0.5,1.5-0.7,3.1-0.7,4.7c-0.1,8.3-0.1,16.7,0,25
			c0,7.5,6,13.5,13.5,13.6c5.8,0.1,11.6,0.2,17.5,0.2c1.6,0,2,0.4,2,2c0,8.4,0,16.8,0,25.2c0,1.4,0.3,2.6,1.1,3.7
			c1.4,1.8,3.2,2.5,5.3,2c2.2-0.5,3.5-2,4-4.1c0.2-0.6,0.2-1.3,0.2-1.9c0-10.5,0-21,0-31.5c0-3.6-2.2-5.8-5.8-5.8
			c-2.9,0-5.7,0-8.6,0c-1.7,0-1.9-0.3-1.8-1.9c0.1-1.8,0.1-3.5,0.1-5.3c0-3.8,0-7.5,0-11.3C71.5,84.8,71.6,84.4,71.6,83.9z"/>
		<path class="st0" d="M152,98.2c0-5.6-0.1-11.2,0-16.9c0.1-4.6-3.3-10.3-10-10.9c-5.3-0.5-10.5,3.6-11.3,9.2
			c-0.4,2.5-0.3,5.1-0.3,7.7c0,6,0,12.1,0,18.1c0,0.5,0,1-0.2,1.5c-0.3,0.9-1.1,1-1.9,1c-3.8,0-7.6,0-11.4,0c-1.7,0-3.2,0.4-4.4,1.6
			c-1.1,1.1-1.7,2.5-1.7,4.1c0,10.7,0,21.4,0,32.1c0,3.9,3.7,6.4,7.1,4.9c1.8-0.8,2.9-2.3,3-4.3c0.1-1.9,0-3.8,0.1-5.7
			c0-2.9,0-5.7,0-8.6c0-2,0-4,0-6c0-2,0-3.9,0-5.9c0-1.7,0.6-2.3,2.3-2.3c8.7,0,17.3,0,26,0c0.3,0,0.7,0,1,0c1.4,0,1.7-0.3,1.7-1.7
			c0-4.5,0-8.9,0-13.4C152,101.2,152,99.7,152,98.2C152,98.2,152,98.2,152,98.2z"/>
		<path class="st0" d="M27.8,108.5c0,12.4,0,24.8,0,37.2c0,2.7,1.7,4.7,3.8,5.3c3.3,1,6.7-1.6,6.7-5.2c0.1-4.6,0-9.2,0-13.8
			c0-0.5,0-1.1,0-1.6c0-1.8,0.5-2.3,2.2-2.3c5.8,0,11.6,0,17.4,0c0.5,0,0.9,0,1.4,0c1.4,0,1.9,0.5,1.9,1.9c0,3.3,0,6.6,0,10
			c0,1.8,0,3.7,0,5.5c0,2.7,1.6,4.9,3.9,5.5c3.4,0.9,6.7-1.7,6.7-5.4c0-4.8,0-9.7,0-14.5c0-2.6,0-5.3,0-7.9c0-3.3-2.2-5.5-5.6-5.5
			c-8.2,0-16.4,0-24.6,0c-0.4,0-0.8,0-1.2,0c-1.4,0-1.8-0.4-1.8-1.9c0-3.9,0-7.9,0-11.8c0-10.8,0-21.7,0-32.5c0-3-1.6-5.2-4.2-5.8
			c-3.1-0.8-6.3,1.5-6.5,4.7c-0.1,0.7,0,1.4,0,2.1C27.8,84.5,27.8,96.5,27.8,108.5C27.8,108.5,27.8,108.5,27.8,108.5z"/>
		<path class="st0" d="M100.8,88.7c-6.6,0-13.2,0-19.8,0c-2.3,0-4.3,1.3-5,3.3c-1.2,3.1,1.1,6.6,4.6,6.7c3.3,0.1,6.6,0,10,0
			c1.1,0,2.1,0,3.2,0c1.6,0,2.2,0.6,2.2,2.2c0,11,0,22,0,33c0,1.4,0.3,2.8,1.3,3.9c1.4,1.6,3.5,2.2,5.5,1.5c2-0.7,3.4-2.7,3.4-4.8
			c0-4.4,0-8.8,0-13.2c0-6.7,0-13.4,0-20.1c0-1.7,0.6-2.3,2.3-2.3c4.3,0,8.6,0,12.9,0c3.6,0,6-3.8,4.5-7.1c-1-2.1-2.7-3.1-5-3.1
			c-4.7,0-9.4,0-14.2,0C104.6,88.7,102.7,88.7,100.8,88.7z"/>
		<path class="st0" d="M76.1,39.9c0-7.2-6.1-13.3-13.3-13.2c-7.3,0.1-13.3,5.7-13.2,13.4c0.1,7.6,5.9,13.1,13.2,13.1
			C70.5,53.2,76,47.1,76.1,39.9z"/>
		<path class="st0" d="M141.4,42.3c-5.4-0.2-10.9,4.3-10.9,10.8c0,6.5,5.3,11.2,11.3,11.1c5.7-0.2,10.7-5.1,10.6-10.9
			C152.4,46.6,146.8,42.1,141.4,42.3z"/>
		<path class="st0" d="M139,121.7c-2.7,0-5.4,0-8.1,0c-0.6,0-1.2,0-1.8,0.1c-1.9,0.3-3.1,1.8-3,3.6c0.1,1.8,1.6,3.4,3.4,3.5
			c1.6,0.1,3.2,0,4.8,0c1.3,0,1.4,0,1.4,1.4c0,5.6,0,11.2,0,16.7c0,0.6,0,1.2,0.2,1.7c0.4,1.5,1.8,2.5,3.3,2.5
			c1.6,0,3.1-1.2,3.5-2.8c0.2-0.7,0.2-1.4,0.2-2.1c0-5.3,0-10.6,0-15.9c0-1.6,0-1.6,1.7-1.6c1.4,0,2.8,0,4.2,0
			c2-0.1,3.5-1.4,3.6-3.2c0.1-1.9-1.1-3.6-3-3.9c-1.2-0.2-2.4-0.2-3.7-0.2C143.4,121.7,141.2,121.7,139,121.7z"/>
	</g>
</g>
</svg>
