<?xml version="1.0" encoding="utf-8"?>
<!-- Generator: Adobe Illustrator 19.1.0, SVG Export Plug-In . SVG Version: 6.00 Build 0)  -->
<!DOCTYPE svg PUBLIC "-//W3C//DTD SVG 1.1//EN" "http://www.w3.org/Graphics/SVG/1.1/DTD/svg11.dtd">
<svg version="1.1" id="Layer_1" xmlns="http://www.w3.org/2000/svg" xmlns:xlink="http://www.w3.org/1999/xlink" x="0px" y="0px"
	 viewBox="0 0 180.2 181.2" style="enable-background:new 0 0 180.2 181.2;" xml:space="preserve">
<style type="text/css">
	.st0{fill:#FFFFFF;}
</style>
<g id="HLtksb.tif">
	<g>
		<path class="st0" d="M27.5,95.1c0.3-1.1,0.5-2.3,0.9-3.4c2.3-6.7,8.4-11.1,15.5-11.3c4.6-0.1,8.7,1,12.3,3.9
			c4,3.3,6.3,7.5,6.5,12.7c0.2,3,0.1,5.9,0.1,8.9c0,0.3,0,0.6,0,1.1c0.4,0,0.7,0,1,0c9.7,0,19.4,0,29.1,0c3.7,0,6.5,2.1,7.4,5.6
			c1.2,4.5-2.1,9-6.7,9c-5.9,0.1-11.8,0-17.8,0c-4.3,0-8.6,0-12.9,0c-2.2,0-3.9-0.8-5.4-2.4c-4.3-4.7-8.7-9.5-13-14.2
			c-0.4-0.4-0.7-0.8-1.1-1.2c-0.6-0.5-1.2-0.5-1.7-0.1c-0.5,0.5-0.6,1.1,0,1.7c1.3,1.5,2.7,2.9,4,4.4c3.4,3.7,6.8,7.4,10.1,11.1
			c1.7,1.8,3.7,2.8,6.2,3c0.2,0,0.5,0,0.8,0.1c0,0.3,0,0.5,0,0.7c0,6.2,0,12.3,0,18.5c0,0.3-0.1,0.6-0.1,0.9c-11.7,0-23.5,0-35.2,0
			C27.5,127.8,27.5,111.5,27.5,95.1z"/>
		<path class="st0" d="M152.7,133.7c-9.4,0-18.8,0-28.3,0c0-3,0-5.9,0-8.8c3.8,0,7.6,0,11.4,0c0-7.7,0-15.3,0-23c-3.7,0-7.3,0-11,0
			c0-0.4,0-0.7,0-0.9c0-21,0-42,0-63c0-0.3,0-0.6,0-0.9c3.4,0,6.9,0,10.3,0c0,0.3,0.1,0.6,0.1,0.8c0,2.3,0,4.7,0,7
			c0,0.2,0.2,0.6,0.4,0.7c2,0.8,2.8,2.4,2.8,4.5c0,4.1,0,8.3,0,12.4c0,0.3,0,0.6,0,0.9c0.9,0,1.7,0,2.6,0c0,20.5,0,40.9,0,61.4
			c3.9,0,7.7,0,11.6,0C152.7,127.8,152.7,130.8,152.7,133.7z"/>
		<path class="st0" d="M79.2,144.2c0-0.1-0.1-0.2-0.1-0.4c0-2.7,0-5.4,0-8.2c24.6,0,49.1,0,73.6,0c0,2.8,0,5.7,0,8.5
			C128.2,144.2,103.7,144.2,79.2,144.2z"/>
		<path class="st0" d="M61.2,80.4c-10.1,0-18.4-8.2-18.4-18.3c0-10.1,8.3-18.3,18.3-18.3c10.1,0,18.3,8.2,18.3,18.3
			C79.5,72.2,71.4,80.4,61.2,80.4z"/>
		<path class="st0" d="M113.2,133.7c-11.4,0-22.7,0-34.1,0c0-1.6,0-3.1,0-4.8c11.3-1.4,22.7-2.7,34.1-4.1
			C113.2,127.8,113.2,130.7,113.2,133.7z"/>
	</g>
</g>
</svg>
