<?xml version="1.0" encoding="utf-8"?>
<!-- Generator: Adobe Illustrator 19.1.0, SVG Export Plug-In . SVG Version: 6.00 Build 0)  -->
<!DOCTYPE svg PUBLIC "-//W3C//DTD SVG 1.1//EN" "http://www.w3.org/Graphics/SVG/1.1/DTD/svg11.dtd">
<svg version="1.1" id="Layer_1" xmlns="http://www.w3.org/2000/svg" xmlns:xlink="http://www.w3.org/1999/xlink" x="0px" y="0px"
	 viewBox="0 0 343.2 351.4" style="enable-background:new 0 0 343.2 351.4;" xml:space="preserve">
<style type="text/css">
	.st0{fill:#FFFFFF;}
</style>
<g id="ZQ8zGh.tif">
	<g>
		<path class="st0" d="M178.2,30.3c5.5,1,11.1,1.8,16.6,2.9C250.7,43.9,295,87.3,307,143c16.3,75.7-31.6,151.1-107.1,168.4
			c-72.7,16.7-146.1-25.2-167.8-96c-2.9-9.5-4-19.5-6-29.3c-0.3-1.3-0.6-2.6-0.9-3.9c0-6.3,0-12.7,0-19c0.3-1.4,0.7-2.9,0.9-4.3
			c1-5.9,1.5-11.9,2.9-17.7C42.3,85,85.7,43.4,142.6,32.7c4.9-0.9,9.8-1.6,14.7-2.4C164.2,30.3,171.2,30.3,178.2,30.3z M167.4,303
			c71.3,0.4,130.3-57.9,130.5-129.7c0.2-72-57.4-130.3-129.8-130.8C96.8,42,37.8,100.3,37.6,172.2C37.3,244.2,95,302.4,167.4,303z"
			/>
		<path class="st0" d="M172.2,158.9c3.1-2.3,4.6-0.5,6.3,1.3c1.6,1.7,3.3,3.2,5.2,5.2c3.5-5.1,6.8-9.6,9.8-14.4
			c1.6-2.6,3.5-3,6.3-2.2c20.7,5.6,36.5,24.8,37.5,46.2c0.5,10.1,0.1,20.3,0.2,30.5c0,3-1.2,4.2-4.2,4.1c-6.3-0.1-12.7-0.1-19,0
			c-3,0.1-4.1-1.2-4.1-4.2c0.1-6.8,0.2-13.7,0-20.5c0-1.7-0.7-3.8-1.9-4.8c-1-0.9-3.4-1.1-4.5-0.4c-1.3,0.8-2.4,2.8-2.5,4.3
			c-0.3,6-0.1,12-0.1,18c0,7.5,0,7.5-7.7,7.5c-16.8,0-33.7,0-50.5,0c-5.4,0-5.5-0.2-5.6-5.7c0-6.2,0-12.3,0-18.5
			c0-4.4-1.4-6.3-4.6-6.2c-3.1,0.1-4.5,1.9-4.5,6.4c0,6.3,0,12.7,0,19c0,4.7-0.2,4.9-4.7,4.9c-6.2,0.1-12.3,0-18.5,0
			c-2.3,0-4-0.6-3.9-3.2c0.4-13.1-1.6-26.4,1.3-39.4c5-22.8,24.2-36.5,40.9-38.9c3.6,5.2,7.4,10.7,11,16c4.4-1.1,5.4-8.6,11.9-5.3
			c-1.5,6.9-2.9,13.7-4.5,20.5c-1.2,5.3-1.2,10.5,1.1,15.6c2.1,4.7,3.7,9.6,5.8,15.2c1.1-1.5,1.9-2.2,2.3-3.2
			c1.6-4.2,3-8.5,4.8-12.6c2.1-4.8,2.1-9.7,1-14.7C175.2,172.7,173.8,165.9,172.2,158.9z"/>
		<path class="st0" d="M169.3,92c15.9,0,28.5,12.8,28.3,28.6c-0.2,15.6-12.7,28.2-28.3,28.3c-15.6,0.1-28.8-13-28.6-28.5
			C140.9,104.5,153.5,92,169.3,92z"/>
	</g>
</g>
</svg>
