<?xml version="1.0" encoding="utf-8"?>
<!-- Generator: Adobe Illustrator 19.1.0, SVG Export Plug-In . SVG Version: 6.00 Build 0)  -->
<!DOCTYPE svg PUBLIC "-//W3C//DTD SVG 1.1//EN" "http://www.w3.org/Graphics/SVG/1.1/DTD/svg11.dtd">
<svg version="1.1" id="Layer_1" xmlns="http://www.w3.org/2000/svg" xmlns:xlink="http://www.w3.org/1999/xlink" x="0px" y="0px"
	 viewBox="0 0 408.1 312.2" style="enable-background:new 0 0 408.1 312.2;" xml:space="preserve">
<style type="text/css">
	.st0{fill:#FFFFFF;}
</style>
<g id="LRNm23_1_">
	<g>
		<path class="st0" d="M208.1,287.5c-40.7,0-81.4,0-122.1,0c-13.7,0-27.5,0-41.2,0c-4.7,0-9-1-12.9-3.6c-5.9-4-9.6-9.4-10.5-16.5
			c-0.2-1.6-0.3-3.2-0.3-4.8c0-13.1,0-26.3,0-39.4c0-5.1,0.1-10.2,0.1-15.3c0-28.7-0.1-57.4-0.1-86.2c0-7.1,0-14.2,0-21.4
			c0-19.4,0-38.9,0-58.3c0-7.7,3-14.1,9-18.9c4.1-3.2,8.8-4.9,14.1-4.9c11.8,0,23.7,0.1,35.5,0.1c26.5,0,53-0.1,79.5-0.1
			c13,0,26,0.1,39,0.1c45.8,0,91.7-0.1,137.5-0.1c11.9,0,23.8,0.1,35.7,0c10.9-0.1,20.9,7.7,23.1,18.9c0.3,1.6,0.4,3.2,0.4,4.8
			c0,20.4,0,40.9,0,61.3c0,40.6,0,81.1,0,121.7c0,13,0,26,0,39c0,9.8-5.6,18.2-14.4,21.9c-2.4,1-4.9,1.6-7.5,1.6c-6.5,0-13,0-19.5,0
			c-0.9,0-1.7,0-2.6,0c-43.3,0-86.7,0-130,0C216.8,287.5,212.4,287.5,208.1,287.5z M208.1,33.2c-3.2,0-6.5,0-9.7,0
			c-43.1,0-86.3,0-129.4,0c-7.5,0-15,0-22.4,0c-0.9,0-1.9-0.1-2.8,0.1c-1.3,0.3-2.7,0.5-3.8,1.2C37.3,36,36,38.6,36,41.7
			c0,7.4,0,14.8,0,22.3c0,21.7,0,43.3,0,65c0,26.2,0,52.4,0,78.6c0,16.4,0,32.9,0,49.3c0,2.4,0.1,4.9,0,7.3
			c-0.2,4.1,3.7,8.7,8.7,8.5c2.8-0.1,5.5,0,8.3,0c15.3,0,30.7,0,46,0c29.5,0,58.9,0,88.4,0c16.3,0,32.5,0,48.8,0
			c29.8,0,59.5,0,89.3,0c12.8,0,25.7,0,38.5,0c2.8,0,5.5,0.1,8.3,0c4.3-0.1,7.8-3.6,8-7.9c0.1-2,0-4,0-6c0-20.3,0-40.6,0-60.9
			c0-24.7,0-49.5,0-74.2c0-15.3,0-30.6,0-45.9c0-11.7,0-23.4,0-35.1c0-1,0-2.1-0.2-3.1c-0.8-3.6-4.3-6.4-8.2-6.3
			c-12.7,0.1-25.4,0-38.1,0C291.8,33.2,250,33.2,208.1,33.2z"/>
		<path class="st0" d="M365,257.5c-104.6,0-209.1,0-313.8,0c0-59.7,0-119.4,0-179.3c104.6,0,209.1,0,313.8,0
			C365,138,365,197.7,365,257.5z M350.3,93.1c-94.9,0-189.6,0-284.3,0c0,50,0,99.7,0,149.6c94.9,0,189.5,0,284.3,0
			C350.3,192.8,350.3,143,350.3,93.1z"/>
		<path class="st0" d="M327.8,55.7c0,4.1-3.4,7.5-7.5,7.4c-4,0-7.3-3.2-7.4-7.6c-0.1-3.9,3.6-7.4,7.5-7.3
			C324.5,48.2,327.8,51.6,327.8,55.7z"/>
		<path class="st0" d="M357.7,55.6c0,4.1-3.3,7.5-7.4,7.5c-4,0-7.4-3.3-7.4-7.3c-0.1-4.2,3.3-7.7,7.5-7.7
			C354.4,48.2,357.7,51.5,357.7,55.6z"/>
		<path class="st0" d="M152,127.9c0.6-0.6,0.8-1,1.1-1.3c4.2-4.1,8.3-8.1,12.5-12.3c0.7-0.7,1.3-0.8,2.3-0.5
			c5.4,2.1,10.8,4,16.2,6.1c1.1,0.4,2.1,0.6,3.1,0c0.4-0.2,0.8-0.4,1.2-0.5c1.2-0.3,1.7-1.2,2.1-2.2c2.1-5,4.3-10,6.3-15.1
			c0.5-1.3,1.3-1.7,2.7-1.6c5.5,0.1,11,0.1,16.6,0c1.5,0,2.2,0.5,2.8,1.8c2.2,5,4.6,10,6.8,15.1c0.5,1,1.1,1.6,2.1,2.1
			c1.9,0.9,3.5,0.8,5.4-0.1c3.2-1.6,6.5-2.9,9.8-4.2c2-0.8,4.1-1.5,6.3-2.2c2.7,2.6,5.4,5.3,8.1,7.9c1.8,1.7,3.5,3.5,5.3,5.1
			c0.9,0.8,1,1.5,0.6,2.6c-2.1,5.2-4.1,10.4-6.1,15.6c-0.3,0.7-0.7,1.5-0.6,2.1c0.3,1.2,0.9,2.4,1.5,3.5c0.2,0.3,0.7,0.4,1.1,0.6
			c3.8,1.5,7.7,3,11.5,4.5c1.7,0.7,3.4,1.5,5,2.3c0.6,0.3,1.1,0.6,1.1,1.5c0,6.3,0,12.6,0,19c-0.6,0.3-1.1,0.7-1.6,0.9
			c-5.2,2.3-10.3,4.5-15.5,6.7c-1.1,0.5-1.9,1.1-2.2,2.2c-0.1,0.4-0.3,0.8-0.5,1.2c-0.5,0.9-0.3,1.7,0.1,2.6
			c2.3,5.2,4.4,10.5,6.6,15.7c0.2,0.4,0.3,0.8,0.5,1.4c-4.7,4.6-9.5,9.3-14.3,14c-4.7-1.3-9.2-2.9-13.6-4.7c-1-0.4-2-0.7-2.9-1.3
			c-2.2-1.4-4.2-0.7-6.2,0.4c-0.5,0.3-0.9,0.9-1.1,1.5c-2.2,5.1-4.4,10.3-6.6,15.4c-0.2,0.6-0.5,1.1-0.9,1.7c-1.9,0-3.7,0-5.5,0
			c-4.4,0-8.7-0.1-13.1,0c-1.2,0-1.9-0.4-2.4-1.5c-2.3-5.1-4.7-10.1-6.9-15.2c-0.5-1.2-1.1-2-2.4-2.3c-0.4-0.1-0.7-0.2-1-0.4
			c-1.1-0.6-2-0.4-3.1,0.1c-5.3,2.5-10.7,4.8-16.4,6.6c-0.2,0.1-0.5,0.1-0.8,0.2c-2.6-2.6-5.2-5.1-7.8-7.7c-1.8-1.8-3.6-3.5-5.4-5.3
			c-0.8-0.8-1.1-1.4-0.6-2.6c2.1-5.2,4-10.4,6.1-15.6c0.5-1.2,0.7-2.2,0-3.3c-0.2-0.3-0.3-0.7-0.4-1c-0.2-1.1-1-1.5-2-1.9
			c-5.2-2-10.3-4.2-15.5-6.3c-1.5-0.6-2-1.4-1.9-3c0.1-5.4,0.1-10.8,0-16.2c0-1.2,0.3-1.9,1.4-2.4c3.4-1.5,6.7-3.1,10-4.5
			c2.1-0.9,4.2-1.7,6.3-2.6c0.5-0.2,1.1-0.8,1.4-1.3c1.4-2.8,1.3-2.8,0-5.8C156.4,138.2,154.2,133,152,127.9z M207.1,115.6
			c-0.2,0.4-0.4,0.9-0.5,1.3c-1.5,4-3.1,8-4.6,12c-0.3,0.7-0.5,1.3-1.3,1.7c-4.8,1.9-9.5,3.9-14.3,5.8c-0.4,0.2-1,0.2-1.4,0
			c-2.7-1.1-5.4-2.2-8.1-3.3c-1.9-0.8-3.8-1.5-5.6-2.2c-0.3-0.1-1-0.1-1.1,0.1c-0.2,0.3-0.1,0.9-0.2,1.3c0,0.1,0.1,0.2,0.1,0.3
			c1.7,3.8,3.5,7.6,5.2,11.3c0.4,0.9,0.9,1.7,0.4,2.9c-2,4.5-3.9,9-5.7,13.5c-0.4,0.9-0.9,1.4-1.7,1.7c-3.9,1.5-7.8,3.1-11.6,4.6
			c-0.5,0.2-1,0.4-1.5,0.7c-0.3,0.2-0.7,0.6-0.7,0.7c0.1,0.3,0.5,0.6,0.8,0.9c0.1,0.1,0.3,0.1,0.5,0.2c4.1,1.5,8.3,3.1,12.4,4.6
			c0.9,0.3,1.5,0.8,1.9,1.8c1.8,4.4,3.7,8.8,5.6,13.2c0.5,1.1,0.4,1.9-0.1,2.9c-1,2.1-1.9,4.2-2.9,6.3c-0.8,1.9-1.6,3.8-2.4,5.8
			c-0.3,0.8-0.3,1.4,0.7,1.8c4.4-2,9-4,13.5-6c0.6-0.3,1.1-0.4,1.9-0.1c3.7,1.6,7.4,3.2,11.3,4.5c2.9,0.9,4.5,2.7,5.4,5.5
			c1.1,3.4,2.7,6.6,4.1,9.8c0.4,1,1.2,1.4,1.8,1c0.4-0.3,0.6-0.8,0.7-1.2c1.5-3.9,3.1-7.9,4.6-11.8c0.4-1.2,1.1-1.9,2.3-2.4
			c3.5-1.3,7-2.7,10.4-4.1c0.5-0.2,1.1-0.4,1.6-0.4c2.9-0.1,5.7,0,8.4,1.3c2.6,1.3,5.3,2.2,8,3.2c0.4,0.1,1,0.2,1.3-0.1
			c0.2-0.2,0.1-0.8,0.1-1.3c0-0.2-0.1-0.3-0.2-0.5c-1.7-3.8-3.5-7.5-5.3-11.3c-0.5-1.1-0.6-2-0.1-3.1c1.9-4.3,3.7-8.7,5.5-13.1
			c0.4-1,1-1.5,2-1.9c4.1-1.6,8.1-3.2,12.1-4.8c0.6-0.2,1.4-0.7,1.5-1.1c0.1-0.9-1-0.9-1.6-1.2c-3.9-1.5-7.8-2.9-11.7-4.3
			c-1.2-0.4-1.9-1.1-2.4-2.3c-1.8-4.4-3.6-8.7-5.5-13c-0.5-1-0.3-1.9,0.1-2.8c1.7-3.9,3.4-7.9,5.1-11.8c0.1-0.3,0.3-0.5,0.4-0.8
			c0.2-0.7-0.4-1.3-1.1-1.1c-0.4,0.1-0.7,0.3-1,0.4c-4,1.8-7.9,3.5-11.9,5.3c-0.9,0.4-1.7,0.5-2.6,0.1c-4.4-1.8-8.7-3.6-13.1-5.3
			c-1.2-0.5-1.9-1.2-2.3-2.3c-1.6-4-3.3-8-5-12.1C208.8,115.7,208.4,115.2,207.1,115.6z"/>
		<path class="st0" d="M222.8,168c-0.2,8.5-7.3,14.3-14.7,14.3c-8.1,0-14.8-6.4-14.7-14.6c0.1-7.9,6.7-14.3,14.8-14.2
			C216.4,153.5,222.9,160,222.8,168z"/>
	</g>
</g>
</svg>
