<?xml version="1.0" encoding="utf-8"?>
<!-- Generator: Adobe Illustrator 19.1.0, SVG Export Plug-In . SVG Version: 6.00 Build 0)  -->
<!DOCTYPE svg PUBLIC "-//W3C//DTD SVG 1.1//EN" "http://www.w3.org/Graphics/SVG/1.1/DTD/svg11.dtd">
<svg version="1.1" id="Layer_1" xmlns="http://www.w3.org/2000/svg" xmlns:xlink="http://www.w3.org/1999/xlink" x="0px" y="0px"
	 viewBox="0 0 556.8 312.2" style="enable-background:new 0 0 556.8 312.2;" xml:space="preserve">
<style type="text/css">
	.st0{fill:#FFFFFF;}
</style>
<g id="bpQLDR.tif">
	<g>
		<path class="st0" d="M218.9,248.6c-63.6,0-127.2,0-190.8,0c-0.3-12.2-0.7-24.5-0.9-36.7c-0.2-12.2,0-24.4,0-37
			c-4.4-0.3-7.9-0.5-11.5-0.7c0-5.1,0-9.5,0-14.2c72.1,0,143.8,0,215.7,0c0,4.9,0,9.4,0,14.2c-3.9,0.2-7.2,0.4-11.3,0.6
			c0,2.9,0,5.4,0,7.9c0,19.2,0,38.5-0.1,57.7C220,243.2,219.3,245.9,218.9,248.6z"/>
		<path class="st0" d="M105.1,101.1c-10.2,11.8-10.9,23.4-1.8,36.1c-1.9-0.2-3.5,0.1-4.3-0.6c-1.4-1.2-2.3-3.1-3.4-4.6
			c-1,2-2,4-2.9,6c-0.3,0.8-0.3,1.8-0.6,3.4c10,0,19.6,0.1,29.3,0c5.2,0,9.6,1.4,9.5,7.4c-0.1,5.7-4.5,6.8-9.4,6.7
			c-11.8-0.1-23.6,0-35.4-0.1c-7.9-0.1-10.5-3.2-9.2-10.9c1.4-8,2.8-15.9,4.6-23.8C84.1,109.8,92.9,102.3,105.1,101.1z"/>
		<path class="st0" d="M122.3,137.3c-14.4,1-16.8-0.8-20.7-12.3c-2.9-8.5,1.3-17.9,9.2-22.7c8-4.8,18.2-3.7,25,2.7
			c6.7,6.4,8,16.5,3.9,24.9C135.5,138.1,128.6,138,122.3,137.3z"/>
		<path class="st0" d="M134.5,155.5c0-5.2,0-9.4,0-14.2c5,0,10.4,0,17.3,0c-1.8-3.9-3.2-7-5.1-11.1c-2.3,3.5-3.6,5.5-4.9,7.5
			c-0.6-0.2-1.2-0.5-1.8-0.7c8.6-12.3,8.2-24.2-1.7-35.4c10.1-1,19.8,5.1,23.8,15.5c3.5,9,6.4,18.3,9.2,27.6
			c1.9,6.5-1.1,10.6-7.7,10.7c-8.3,0.2-16.7,0.1-25,0.1C137.1,155.5,135.7,155.5,134.5,155.5z"/>
	</g>
</g>
<g id="TkdkSl.tif">
	<g>
		<path class="st0" d="M516.3,44.3c0.8,0.8,1.2,1.8,1.1,3c-0.1,3.5,0,6.9,0,10.5c-1.4,0-2.7,0-4.2,0c0-0.4-0.1-0.9-0.1-1.3
			c0-3.1,0-6.2,0-9.3c0-1.3,0.3-2.2,1.4-2.9C515.1,44.3,515.7,44.3,516.3,44.3z"/>
		<path class="st0" d="M486.1,62c1.2-2.5,2-2.7,4.3-1.4c3,1.7,6,3.5,9.1,5.3c-0.7,1.3-1.4,2.4-2.2,3.7c-3.4-2-6.7-3.9-10-5.8
			c-0.5-0.3-0.8-1-1.3-1.5C486.1,62.2,486.1,62.1,486.1,62z"/>
		<path class="st0" d="M544.4,62.3c-0.7,0.7-1.4,1.5-2.2,2c-3,1.8-6,3.5-9.1,5.3c-0.7-1.2-1.4-2.4-2.2-3.7c0.7-0.4,1.3-0.8,2-1.2
			c2.3-1.4,4.7-2.7,7-4.1c2.5-1.4,3.2-1.2,4.5,1.3C544.4,62.1,544.4,62.2,544.4,62.3z"/>
		<path class="st0" d="M513.8,116.3c-0.9-0.7-2.4-0.9-2.5-2.6c2.7,0,5.2,0,7.9,0c-0.1,1.6-1.6,1.8-2.5,2.6
			C515.7,116.3,514.8,116.3,513.8,116.3z"/>
		<path class="st0" d="M515.1,102.7c-1.3,0-2.5,0-3.8,0c-2.7,0-3.3-0.5-3.9-3.2c-0.3-1.2-0.5-2.5-0.8-3.7c-1-3.9-2.8-7.5-4.7-11
			c-2.8-5.3-2.7-10.6,0.5-15.7c4.2-6.6,12.9-8.8,19.8-5.1c6.9,3.7,9.8,12,6.7,19.3c-0.3,0.6-0.6,1.2-0.9,1.8
			c-2.5,4.5-4.5,9.2-5.3,14.4c-0.5,2.8-1.1,3.2-4,3.3C517.6,102.8,516.4,102.7,515.1,102.7z"/>
		<path class="st0" d="M507.6,59.8c-1.3,0.8-2.5,1.4-3.8,2.1c-2-3.5-4-6.9-5.9-10.3c-0.7-1.2-0.3-2.3,0.8-2.9
			c1.1-0.6,2.2-0.4,2.9,0.8C503.6,52.9,505.6,56.2,507.6,59.8z"/>
		<path class="st0" d="M526.6,62c-1.3-0.8-2.4-1.4-3.7-2.2c0.8-1.4,1.6-2.8,2.3-4.1c1.2-2,2.3-4,3.5-6c0.8-1.3,1.8-1.6,3-1
			c1.2,0.6,1.5,1.8,0.8,3.1C530.6,55.1,528.6,58.5,526.6,62z"/>
		<path class="st0" d="M515.1,103.9c1.7,0,3.3,0,5,0c0.7,0,1.3,0.1,1.3,1.1c0,0.9-0.6,1.1-1.3,1.1c-3.3,0-6.6,0-9.8,0
			c-0.6,0-1.2-0.1-1.2-1c0-0.9,0.4-1.2,1.2-1.2C511.8,103.9,513.4,103.9,515.1,103.9z"/>
		<path class="st0" d="M515.2,109.2c-1.6,0-3.2,0-4.8,0c-0.7,0-1.3-0.1-1.3-1.1c0-0.9,0.6-1.1,1.3-1.1c3.3,0,6.6,0,9.8,0
			c0.8,0,1.2,0.3,1.2,1.2c0,0.8-0.6,1-1.2,1C518.5,109.3,516.8,109.2,515.2,109.2z"/>
		<path class="st0" d="M515.2,110.3c1.6,0,3.2,0,4.8,0c0.7,0,1.3,0.1,1.4,1c0,1-0.7,1.1-1.4,1.1c-3.2,0-6.3,0-9.5,0
			c-0.8,0-1.5,0-1.4-1.1c0-1.1,0.8-1.1,1.5-1.1C512.1,110.3,513.6,110.3,515.2,110.3z"/>
	</g>
</g>
<g id="KvEIfj.tif">
	<g>
		<path class="st0" d="M366.2,180c0,0.7,0,1.3,0,2c5,8.9,11.3,9,16.7,0.3c1.8-3,3.6-6,5.4-9c2.4-3.8,4.7-7.6,7.1-11.4
			c0.8,30.1,1,59.7,0.7,89.4c0,5.7,1.6,9.7,7,11.7c0.7,0,1.3,0,2,0c5.4-2.1,7.2-6,7-11.7c-0.3-16-0.1-32-0.1-47.9c0-1.7,0-3.5,0-5.1
			c4.4,0,8.1,0,12.1,0c0,2,0,3.8,0,5.6c0,15.8,0.2,31.6-0.1,47.4c-0.1,5.7,1.6,9.7,7,11.7c0.7,0,1.3,0,2,0c5.4-2,7.1-5.9,7.1-11.7
			c-0.2-34.9-0.1-69.8-0.2-104.7c0-2.9,0.9-4.8,3.2-6.6c13.1-10.5,26.1-21.1,39-31.9c2.3-1.9,4-4.7,6-7.1c0-0.7,0-1.3,0-2
			c-4.1-8.2-8.4-9.2-15.6-3.4c-11.9,9.7-23.6,19.5-35.6,29c-2,1.6-5,2.7-7.6,2.9c-8.1,0.5-16.3-0.1-24.4,0.6
			c-3.5,0.3-8.2,1.7-9.9,4.2C385.2,148,375.8,164.1,366.2,180z"/>
		<path class="st0" d="M420.2,85c1.4,0.5,2.7,1,4.1,1.5c9.2,3.5,14.1,13.4,11.2,22.6c-3,9.6-12.9,15.1-22.4,12.4
			c-9.6-2.7-15.3-12.4-12.9-22.1c2-8.5,8.3-12.4,16.1-14.5C417.6,85,418.9,85,420.2,85z M405.9,109.2c2.4,5.5,6.7,7.2,11.5,7.6
			c5.2,0.4,9.8-2.4,12.1-7.6C421.5,109.2,414.1,109.2,405.9,109.2z"/>
	</g>
</g>
<g id="_x35_GVHZS_1_">
	<g>
		<path class="st0" d="M265.9,174.8c0.1-0.1,0.3-0.1,0.4-0.2c0.6-1.2,1.6-1.4,2.8-1.4c13.5,0,27,0,40.6,0c0.5,0,0.9,0,1.4,0
			c0.8,0.1,1.5-0.2,1.8-1c0.3-0.7-0.2-1.2-0.7-1.7c-1.9-1.9-3.8-3.9-5.8-5.8c-1.3-1.3-2.6-2.6-4-3.9c-0.2-0.2-0.4-0.4-0.6-0.7
			c-0.8-1.2-0.8-2.1,0.2-3.2c1.2-1.3,2.5-2.6,3.8-3.8c1.1-1,2.4-0.9,3.5,0.2c3,2.9,5.9,5.9,8.8,8.8c4.7,4.7,9.3,9.3,14,14
			c0.3,0.3,0.6,0.7,0.9,1c0.1,0.1,0.3,0.2,0.5,0.3c0,0.6,0,1.2,0,1.8c-0.7,0.7-1.3,1.4-2,2.1c-7.2,7.3-14.5,14.5-21.7,21.7
			c-0.2,0.2-0.4,0.4-0.6,0.6c-0.9,0.9-2,0.9-2.9,0.1c-1.4-1.3-2.8-2.7-4.1-4.1c-0.6-0.7-0.7-2.1-0.1-2.9c0.5-0.6,1.1-1.2,1.6-1.8
			c2.8-2.9,5.7-5.7,8.6-8.5c0.5-0.4,0.8-0.9,0.7-1.6c-0.1-0.7-0.4-1.1-1.1-1.2c-0.3,0-0.7,0-1,0c-13.9,0-27.8,0-41.7,0
			c-0.5,0-1.1-0.2-1.6-0.3c-0.5-0.1-0.9-0.4-1.2-1c-0.1-0.1-0.3-0.2-0.5-0.3C265.9,179.6,265.9,177.2,265.9,174.8z"/>
	</g>
</g>
</svg>
