<?xml version="1.0" encoding="utf-8"?>
<!-- Generator: Adobe Illustrator 19.1.0, SVG Export Plug-In . SVG Version: 6.00 Build 0)  -->
<!DOCTYPE svg PUBLIC "-//W3C//DTD SVG 1.1//EN" "http://www.w3.org/Graphics/SVG/1.1/DTD/svg11.dtd">
<svg version="1.1" id="Layer_1" xmlns="http://www.w3.org/2000/svg" xmlns:xlink="http://www.w3.org/1999/xlink" x="0px" y="0px"
	 viewBox="0 0 190.5 229.7" style="enable-background:new 0 0 190.5 229.7;" xml:space="preserve">
<style type="text/css">
	.st0{fill:#FFFFFF;}
</style>
<g id="TH4xqA_1_">
	<g>
		<path class="st0" d="M109.5,87.7c-3.4-0.4-3.7,1.5-3.7,3.7c0,11.6,0,23.2,0,34.8c0,2.1,0.1,4.3,0,6.4c-0.2,3.8-2.5,6.4-5.9,6.3
			c-3.3,0-5.6-2.6-5.6-6.5c0-15.3,0-30.6,0-45.9c0-9,7.2-16.4,16.3-16.6c11-0.2,22-0.2,33.1,0c9.8,0.2,16.8,7.5,16.8,17.3
			c0,15,0,30,0,45c0,3.9-2.4,6.7-5.9,6.6c-3.4-0.1-5.7-2.8-5.7-6.8c0-13.6,0-27.3,0-40.9c0-2.4-0.6-4-3.6-3.7c0,1.6,0,3,0,4.5
			c0,34.9,0,69.8,0,104.7c0,5.1-3,8.4-7.6,8.4c-4.4,0-7.6-3.2-7.6-7.8c0-14.2,0-28.5,0-42.7c0-5.1,0-10.1,0-15.4c-1.7,0-3.2,0-5.3,0
			c0,3.1,0,6.4,0,9.7c0,16.1,0,32.2,0,48.3c0,3.2-1.3,5.7-4.2,7.2c-2.6,1.3-5.3,1.2-7.8-0.4c-2.4-1.6-3.4-3.9-3.4-6.7
			c0-21.9,0-43.9,0-65.8C109.5,116.9,109.5,102.4,109.5,87.7z"/>
		<path class="st0" d="M67.5,139.3c-1.8,0-3.3,0-5.3,0c0,5.2,0,10.4,0,15.5c0,14,0,28.1,0,42.1c0,5.1-3,8.4-7.7,8.4
			c-4.4,0-7.6-3.3-7.6-8.2c-0.1-26.8-0.1-53.6-0.1-80.4c0-9,0.1-17.9,0.1-26.9c0-0.7-0.1-1.3-0.1-2c-3.1-0.4-3.5,1.5-3.5,3.8
			c0,13,0,25.9,0,38.9c0,0.4,0,0.8,0,1.2c0,4.7-2.2,7.5-5.8,7.5c-3.6,0-5.8-3-5.8-7.6c0-14.6,0-29.2,0-43.8c0-10.1,7-17.4,17.2-17.5
			c17-0.1,33.9,0,51.8,0c-1.9,1.8-3.4,3.1-4.8,4.4c-0.3,0.3-0.6,0.8-0.9,1.2c-3.4,4.8-3.4,4.8-9.3,6.1c-2.2,0.5-3.1,2.1-3.1,4.3
			c0,10.8,0,21.6,0,32.5c0,26.3,0,52.6,0,79c0,4.5-3.1,7.6-7.4,7.7c-4.5,0.1-7.8-3.2-7.8-8c0-15.9,0-31.8,0-47.7
			C67.5,146.2,67.5,142.8,67.5,139.3z"/>
		<path class="st0" d="M143.6,50.2c0,8.9-7.2,16.2-16.1,16.2c-8.6,0-16-7.3-16.1-16c-0.1-8.9,7.1-16.2,16-16.2
			C136.5,34.2,143.5,41.2,143.6,50.2z"/>
		<path class="st0" d="M76.9,50.3c0.1,8.8-7,16.1-15.8,16.1c-8.7,0.1-16-7.1-16-15.9c0-8.9,7-16.1,15.8-16.1
			C69.8,34.3,76.9,41.4,76.9,50.3z"/>
		<path class="st0" d="M135.8,67.3c3.4-4.8,8.4-4.6,11.1,0C143.3,67.3,139.8,67.3,135.8,67.3z"/>
	</g>
</g>
</svg>
